<svg id="logo-header" width="140" height="90" viewBox="0 0 232 100" fill="none" xmlns="http://www.w3.org/2000/svg">
	<g clip-path="url(#clip0_47_2)">
		<path d="M142.052 1.98292C142.175 1.55557 142.24 0.800581 142.858 0.908844C146.103 0.934485 149.334 1.3077 152.579 1.31055C156.994 1.33619 161.418 1.49289 165.83 1.25072C165.796 30.3106 165.839 59.3704 165.807 88.4331C157.623 88.4074 149.434 88.5014 141.252 88.3846C141.375 80.6638 141.418 72.9402 141.739 65.2222C141.876 62.1937 141.788 59.1596 141.833 56.1311C141.85 42.9259 142.012 29.7237 142.243 16.5214C142.24 13.6724 142.115 10.8234 142.121 7.97152C142.135 5.97722 141.808 3.97152 142.052 1.98292Z" fill="#79CFDE" />
		<path d="M212.583 2.28207C213.5 1.1966 215.06 1.2023 216.355 1.0399C219.478 0.914546 222.606 1.00287 225.726 1.17665C227.588 1.23933 229.449 1.15386 231.311 1.23933C231.61 15.9174 231.545 30.6012 231.584 45.2792C231.587 58.4815 231.573 71.6838 231.59 84.8861C231.539 85.7408 231.798 86.7664 231.12 87.4416C230.531 88.0086 229.634 87.9658 228.877 88.0285C220.975 88.1482 213.073 88.3447 205.171 88.1681C203.369 82.9972 202.418 77.5841 201.029 72.2963C199.107 64.6268 197.22 56.9516 195.279 49.2878C194.815 47.5926 194.538 45.8405 193.901 44.1994C193.71 45.5128 193.804 46.8405 193.79 48.1624C193.767 55.5698 193.653 62.9744 193.787 70.3818C193.793 74.4587 193.961 78.5356 193.898 82.6154C193.838 84.322 194.1 86.0855 193.602 87.7465C193.346 88.6239 192.321 88.6524 191.572 88.6553C186.255 88.6382 180.937 88.6581 175.623 88.6467C174.615 88.6866 173.898 87.849 173.297 87.1567C173.098 86.5214 173.229 85.8376 173.206 85.1824C173.243 69.51 173.132 53.8376 173.337 38.1653C173.53 30.7607 173.476 23.3533 173.695 15.9487C173.747 11.6752 173.849 7.39888 173.801 3.12252C173.832 2.58121 173.755 1.98862 174.017 1.49289C174.438 1.32195 174.905 1.38463 175.352 1.36184C183.713 1.39888 192.07 1.35044 200.431 1.38748C201.74 4.71512 202.421 8.23933 203.346 11.6809C205.968 22.4302 208.709 33.1482 211.479 43.8604C211.698 44.7692 211.869 45.698 212.279 46.547C212.506 44.8091 212.373 43.0541 212.407 41.3077C212.387 28.2992 212.415 15.2849 212.583 2.28207Z" fill="#79CFDE" />
		<path d="M71.7207 8.23933C77.8894 7.99717 84.0637 8.07694 90.2352 8.0513C90.6593 8.10543 91.223 7.96868 91.5219 8.36469C91.9061 8.80344 91.8008 9.43307 91.8378 9.96868C91.815 16.1453 91.8549 22.3191 91.8236 28.4929C91.8606 29.2308 91.3169 29.7806 90.9269 30.3419C84.9917 30.3846 79.0565 30.3248 73.1213 30.3704C73.1013 32.7351 73.1269 35.0969 73.1042 37.4587C78.2566 37.6268 83.3919 37.0456 88.5414 37.1026C89.0282 37.1282 89.6573 37.1311 89.9078 37.6467C90.6422 38.9459 90.1384 40.4815 90.1526 41.8861C90.1526 45.6809 90.3775 49.473 90.3889 53.2678C90.3006 53.7379 90.4344 54.7379 89.6943 54.6097C87.5907 54.7066 85.487 54.8348 83.3862 55.0143C80.0699 55.2792 76.7336 55.057 73.4145 55.1852L73.2977 55.3163C73.2038 57.6183 73.2835 59.9288 73.2664 62.2365C75.6747 62.7778 78.1228 62.2251 80.5538 62.2536C83.779 62.0684 87.0128 61.9972 90.2437 62.0798C90.9867 62.1653 91.9118 62.1111 92.4071 62.792C92.726 63.1425 92.632 63.6553 92.6747 64.0912C92.6605 70.0798 92.689 76.0713 92.6605 82.0627C92.6064 82.8177 92.558 83.9032 91.6443 84.1026C90.8045 84.245 89.9477 84.1767 89.1022 84.1852C77.2403 84.171 65.3784 84.1995 53.5165 84.171C53.0639 83.5185 52.3437 82.9089 52.4377 82.0342C52.4548 58.7778 52.4434 35.5242 52.4462 12.2678C52.4718 11.2251 52.3978 10.1567 52.6711 9.13677C52.9387 8.46156 53.7614 8.34475 54.3933 8.44731C57.035 8.83478 59.7108 8.58976 62.3667 8.61255C65.4809 8.38178 68.6065 8.46156 71.7207 8.23933Z" fill="#79CFDE" />
		<path d="M93.1729 8.65242C107.19 8.63818 121.206 8.65527 135.223 8.64388C136.089 8.66382 136.977 8.55841 137.828 8.76353C138.463 9.35898 138.295 10.3362 138.38 11.1225C138.392 17.0085 138.389 22.8946 138.383 28.7778C138.326 29.3561 138.383 30.1567 137.777 30.4672C137.316 30.6182 136.82 30.567 136.345 30.584C133.057 30.5584 129.769 30.5584 126.481 30.5869C126.47 48.0313 126.487 65.4758 126.473 82.9202C126.496 83.7407 126.333 84.8974 125.297 84.9573C122.821 84.9801 120.31 85.151 117.865 84.6638C114.059 84.2906 110.247 84.8917 106.435 84.7806C105.832 84.8832 105.476 84.3533 105.123 83.9715C104.813 83.5841 104.397 83.1852 104.426 82.6467C104.414 78.6496 104.428 74.6553 104.423 70.6581C104.576 66.5727 104.616 62.4843 104.696 58.3989C104.998 52.2393 104.904 46.0712 105.086 39.9088C104.986 36.9202 105.408 33.8889 104.912 30.9288C101.721 30.9829 98.5303 30.9687 95.342 30.943C94.3172 30.963 93.022 30.2507 93.1786 29.0712C93.1672 22.265 93.1843 15.4587 93.1729 8.65242Z" fill="#79CFDE" />
		<path d="M1.81043 8.97436C3.4814 8.90314 5.14668 8.65243 6.82049 8.7151C15.2636 8.72935 23.7067 8.71225 32.1498 8.72365C36.081 8.8604 39.7133 10.9373 42.298 13.8234C45.5517 17.2678 47.2056 21.8803 48.0339 26.4729C48.8538 31.5413 48.8452 36.7863 47.7891 41.8234C46.7814 46.5328 44.5127 50.9117 41.5607 54.6895C40.5843 55.943 39.124 56.6638 37.769 57.4217C35.3067 58.604 32.628 59.3818 29.8924 59.5271C28.452 59.5641 27.0543 59.9915 25.6111 60.0057C24.4297 60.0199 23.2512 59.9886 22.0699 60.0029C22.0072 67.4501 22.0983 74.8974 22.3318 82.339C22.3517 82.9915 22.2663 83.7151 21.7852 84.2023C21.1988 84.7122 20.3847 84.7749 19.6417 84.7863C13.4901 84.8006 7.34143 84.7578 1.18987 84.8063C0.919437 79.9031 1.03046 74.9829 0.811266 70.0741C0.72302 61.1482 0.335879 52.2279 0.375732 43.302C0.384272 32.3732 0.925131 21.4558 0.927977 10.5299C0.902358 9.90599 1.03046 9.02849 1.81043 8.97436ZM20.5839 27.6382C20.8003 32.4957 20.0374 37.3276 20.137 42.1852C20.6295 42.4473 21.0735 42.8917 21.6514 42.9259C23.8433 42.9516 26.0124 42 27.5183 40.416C29.2718 38.4188 29.6931 35.6353 29.6305 33.0655C29.5565 31.0114 29.1494 28.7949 27.746 27.2108C26.0068 25.6581 23.5103 25.4872 21.2899 25.4843C20.6779 26.0484 20.4758 26.8262 20.5839 27.6382Z" fill="#79CFDE" />
		<path d="M181.191 89.4473C182.608 89.5584 184.04 89.5812 185.435 89.8974C185.287 91.9288 185.409 93.9658 185.341 96C185.31 97.0912 184.994 98.359 183.94 98.9003C182.113 99.9231 179.807 99.9145 177.871 99.208C176.639 98.7892 175.81 97.5556 175.816 96.2621C175.782 94.1054 175.828 91.9459 175.825 89.7863C177.16 89.7464 178.498 89.7208 179.836 89.7635C180.006 92.114 179.821 94.4758 180.012 96.8234C180.448 96.8604 181.185 96.8746 181.145 96.2507C181.245 93.9858 181.176 91.7151 181.191 89.4473Z" fill="#F47644" />
		<path d="M1.05612 89.7578C3.62378 89.7407 6.19428 89.7123 8.76194 89.7692C8.75625 90.6866 8.74771 91.6011 8.74201 92.5185C7.48381 92.6268 6.2199 92.5812 4.95885 92.6325C4.94177 92.8291 4.90761 93.2222 4.89053 93.4188C6.06334 93.4445 7.2333 93.4274 8.40611 93.4843C8.40327 94.3134 8.42035 95.1425 8.44312 95.9744C7.28454 96.0541 6.12597 96.0798 4.96454 96.094C4.96739 96.416 4.97023 96.7379 4.97023 97.0598C6.27968 97.0513 7.58628 96.9801 8.89573 96.9943C8.89858 97.8861 8.90143 98.7778 8.90712 99.6695C7.93357 99.7892 6.95149 99.9088 5.9694 99.8034C4.32974 99.6296 2.68155 99.7835 1.03904 99.698C0.982112 96.3846 1.09598 93.0712 1.05612 89.7578Z" fill="#F47644" />
		<path d="M167.231 89.7835C168.942 89.7208 170.655 89.7037 172.366 89.8006C173.399 93.1054 174.586 96.3675 175.495 99.7066C174.151 99.7123 172.807 99.735 171.464 99.6667C171.264 99.2308 171.301 98.5784 170.812 98.3419C170.001 98.2165 169.178 98.2963 168.364 98.3276C168.201 98.7436 168.201 99.265 167.888 99.6012C166.639 99.9601 165.324 99.8405 164.054 99.7037C164.794 96.302 166.206 93.0997 167.231 89.7835ZM168.617 96.0314C169.334 96.02 170.052 95.9744 170.766 95.8804C170.416 94.5385 170.186 93.1681 169.779 91.8433C169.013 93.0969 168.845 94.6097 168.617 96.0314Z" fill="#F47644" />
		<path d="M92.9167 90.6952C94.6276 89.7949 96.8479 89.8291 98.499 90.8519C99.2163 91.2593 99.4925 92.0627 99.5095 92.8519C98.388 92.9032 97.255 92.9345 96.1534 92.6809C95.6609 92.5356 95.1627 92.6752 94.7044 92.8547C95.9399 93.7351 97.6336 93.567 98.8121 94.5556C100.235 95.6581 99.9137 98.1767 98.3396 98.9915C96.7796 99.7977 94.8809 99.8576 93.2213 99.3277C92.1311 98.8661 91.4707 97.7493 91.3226 96.604C92.4414 96.5613 93.5629 96.5499 94.6788 96.624C94.9037 96.8718 94.9749 97.3391 95.3591 97.4046C95.8488 97.6268 96.1647 97.0826 96.495 96.8376C95.3108 95.9003 93.6199 96.208 92.4584 95.2336C90.9127 94.151 91.2657 91.4986 92.9167 90.6952Z" fill="#F47644" />
		<path d="M20.6494 91.869C21.6088 90.6297 23.2968 90.2707 24.7884 90.3476C25.9157 90.4445 27.1768 90.8034 27.8087 91.8262C28.2983 92.4616 28.3126 93.2821 28.341 94.0456C27.2593 94.0399 26.1776 94.0399 25.0959 94.0342C25.1272 93.3391 24.5892 92.4587 23.8547 93.0656C23.294 94.1168 23.442 95.4188 23.6014 96.5584C23.6242 97.1197 24.1963 97.0969 24.6091 97.1539C24.7543 96.7778 24.8994 96.4046 25.0475 96.0342C26.1947 96.0456 27.3419 96.0285 28.4919 96.0485C28.4065 97.1311 28.0848 98.3277 27.1084 98.9402C24.9051 100.456 21.1846 99.7664 20.1655 97.1311C19.4766 95.453 19.4852 93.3391 20.6494 91.869Z" fill="#F47644" />
		<path d="M32.87 90.4786C34.0315 90.2165 35.284 90.4416 36.323 91.0086C38.6003 92.9003 38.8536 96.9687 36.434 98.8633C34.4015 100.168 31.1934 100.011 29.7558 97.8804C28.6542 96.0171 28.6627 93.3818 30.0974 91.6952C30.7635 90.8462 31.8965 90.7208 32.87 90.4786ZM32.9042 93.0769C32.4971 94.4359 32.3349 96.0712 33.0978 97.3277C34.1596 97.8946 34.6349 96.5556 34.6207 95.7322C34.6065 94.6895 34.7773 93.1937 33.6102 92.6952C33.4337 92.7892 33.0807 92.9829 32.9042 93.0769Z" fill="#F47644" />
		<path d="M81.5502 90.4786C82.8226 90.2251 84.2716 90.4359 85.3134 91.245C86.435 92.5356 87.1182 94.3276 86.7254 96.0399C86.5062 97.4046 85.7006 98.7379 84.3883 99.2821C82.8454 99.8348 81.0093 99.8917 79.5832 98.9943C77.434 97.6012 77.1692 94.4217 78.3107 92.3049C78.9398 91.0883 80.2977 90.6866 81.5502 90.4786ZM81.5758 93.0798C81.183 94.3419 81.0947 95.7465 81.5673 97C81.7523 97.5784 82.7173 97.5926 82.9621 97.0627C83.5343 95.8034 83.3379 94.3533 82.9763 93.0627C82.8027 92.9858 82.4583 92.8291 82.2846 92.7521C82.1081 92.8348 81.7523 92.9972 81.5758 93.0798Z" fill="#F47644" />
		<path d="M108.254 90.3647C109.484 90.2906 110.717 90.3049 111.946 90.322C111.938 92.4758 111.892 94.6325 111.989 96.7863C112.282 96.7436 112.894 97 112.917 96.5185C113.096 94.4673 112.94 92.3989 113.037 90.3419C114.303 90.302 115.576 90.3106 116.845 90.2992C116.808 92.3875 116.752 94.4758 116.74 96.5641C116.777 97.6069 116.097 98.5926 115.135 98.9715C113.842 99.4957 112.399 99.4872 111.03 99.3932C109.598 99.2593 108.354 98.057 108.289 96.6012C108.155 94.5242 108.351 92.4445 108.254 90.3647Z" fill="#F47644" />
		<path d="M136.14 90.3932C137.207 90.2878 138.323 90.5556 139.231 91.1254C141.409 93.1282 141.577 97.1937 139.041 98.9801C137.082 100.057 134.241 100.003 132.738 98.1709C131.42 96.4188 131.42 93.7892 132.616 91.9772C133.367 90.7721 134.89 90.6781 136.14 90.3932ZM135.864 92.9772C135.055 94.0484 135.314 95.6268 135.585 96.8633C135.673 97.5727 136.806 97.6353 137.062 97.0086C137.572 95.906 137.461 94.604 137.153 93.4615C137.076 92.8974 136.288 92.5584 135.864 92.9772Z" fill="#F47644" />
		<path d="M154.953 90.4359C156.103 90.2621 157.35 90.4729 158.321 91.1339C160.444 93.0969 160.629 97.0171 158.275 98.8718C156.234 100.16 153.043 100.009 151.6 97.8804C150.493 96.0798 150.521 93.5385 151.808 91.8348C152.505 90.7977 153.84 90.6895 154.953 90.4359ZM154.74 93.0171C154.267 94.4558 154.321 96.0143 154.859 97.4274C155.215 97.4131 155.574 97.3818 155.93 97.3362C156.71 96.1482 156.573 94.5556 156.155 93.2593C155.918 92.6638 155.198 92.7892 154.74 93.0171Z" fill="#F47644" />
		<path d="M186.693 90.3248C188.361 90.3077 190.029 90.3875 191.697 90.3903C191.951 91.7265 192.19 93.0684 192.509 94.3903C192.902 93.0427 193.226 91.6752 193.565 90.3134C195.159 90.3191 196.753 90.2849 198.347 90.3447C198.504 92.9915 198.373 95.6439 198.43 98.2935C198.361 98.6439 198.575 99.2422 198.119 99.3903C197.163 99.4957 196.198 99.4103 195.242 99.4046C194.951 98.1453 195.096 96.8547 195.042 95.5784C194.342 96.7322 194.214 98.1054 193.841 99.3789C192.933 99.4473 192.022 99.4473 191.117 99.3846C190.701 97.6638 190.354 95.9288 190.018 94.1937C189.719 95.886 189.824 97.6154 189.785 99.3248C188.774 99.3134 187.763 99.3134 186.753 99.3305C186.648 96.3305 186.685 93.3276 186.693 90.3248Z" fill="#F47644" />
		<path d="M204.937 92.302C205.694 90.8547 207.425 90.396 208.94 90.3476C210.155 90.3533 211.453 90.5983 212.429 91.3732C213.042 91.8718 213.07 92.7094 213.207 93.4245C212.168 93.4245 211.123 93.4616 210.092 93.3305C209.537 93.0997 208.868 92.5983 208.316 93.1168C207.784 94.1567 207.858 95.4502 208.128 96.5584C208.308 97.3049 209.261 97.1225 209.839 97.1311C210.314 97.2621 210.186 96.6325 210.354 96.3875C209.885 96.3305 209.421 96.2764 208.959 96.2251C208.942 95.6012 208.942 94.9772 208.957 94.3533C210.425 94.2678 211.9 94.2621 213.366 94.4017C213.36 95.9373 213.295 97.4729 213.363 99.0086C211.285 99.7351 208.928 99.9801 206.805 99.3077C204.049 98.3533 203.554 94.5584 204.937 92.302Z" fill="#F47644" />
		<path d="M217.895 90.4844C219.051 90.2137 220.32 90.4188 221.351 91.0029C223.62 92.9003 223.887 96.9573 221.479 98.8576C220.016 99.7977 218.052 99.9345 216.443 99.2906C213.736 98.0285 213.295 94.0798 215 91.8462C215.635 90.8718 216.859 90.7379 217.895 90.4844ZM217.935 93.0997C217.508 94.4616 217.385 96.0769 218.123 97.3505C218.53 97.4217 219.145 97.5185 219.327 97.0171C219.882 95.7721 219.703 94.3277 219.301 93.0627C219.13 92.9801 218.786 92.8177 218.612 92.7351C218.444 92.8262 218.106 93.0086 217.935 93.0997Z" fill="#F47644" />
		<path d="M9.78675 90.6752C11.193 90.6154 12.5992 90.5841 14.0054 90.6154C14.5235 92.1311 15.1099 93.6239 15.554 95.1681C15.6907 93.6952 15.6764 92.2137 15.8387 90.7464C16.687 90.396 17.7886 90.6752 18.7308 90.6439C18.7451 93.5584 18.8276 96.4758 18.7451 99.3903C17.3759 99.3675 15.944 99.6068 14.6061 99.3134C13.977 97.9544 13.6212 96.4843 13.0177 95.114C12.9351 96.5413 12.9266 97.9715 12.9237 99.4046C11.879 99.4017 10.8172 99.5385 9.78675 99.3277L9.70135 99.1453C9.58464 96.3248 9.81237 93.4986 9.78675 90.6752Z" fill="#F47644" />
		<path d="M39.1098 90.661C40.5103 90.6183 41.9109 90.5926 43.3114 90.5955C43.8551 92.1168 44.4188 93.6353 44.8913 95.1824C44.9596 93.6724 45.0763 92.1681 45.119 90.6581C46.0983 90.5812 47.0832 90.5784 48.0653 90.6296C48.1621 92.2279 48.0055 93.8291 48.0767 95.4302C48.0795 96.7322 48.2133 98.0456 48.0169 99.3391C46.6704 99.4929 45.2699 99.5157 43.9291 99.3334C43.3057 97.963 42.9044 96.5043 42.3692 95.1026C42.2468 96.5328 42.2553 97.9687 42.2354 99.4046C41.1366 99.4359 40.0264 99.5128 38.9447 99.2678C39.0073 96.3989 39.0813 93.5299 39.1098 90.661Z" fill="#F47644" />
		<path d="M48.6688 90.6125C51.2791 90.5698 53.8923 90.6325 56.5027 90.5698C56.5482 91.4245 56.5596 92.282 56.5596 93.1367C55.8821 93.1937 55.1335 93.0285 54.5072 93.282C54.419 95.3191 54.4844 97.3675 54.4816 99.4102C53.2262 99.4501 51.968 99.4558 50.7127 99.3818C50.5561 97.3134 50.8322 95.2479 50.8094 93.1795C50.1092 93.1681 49.4061 93.1481 48.7086 93.1168C48.6716 92.282 48.6631 91.4444 48.6688 90.6125Z" fill="#F47644" />
		<path d="M57.0607 90.604C59.0505 90.6382 61.0488 90.4872 63.03 90.7037C64.0748 90.7977 65.3358 91.3676 65.3899 92.5698C65.6148 93.5926 64.8946 94.4131 64.1288 94.9658C65.5294 95.9601 65.333 97.906 65.7514 99.4017C64.5558 99.3789 63.3062 99.604 62.1419 99.3134C61.7747 98.416 61.7491 97.4274 61.5754 96.4844C61.305 96.4587 61.0317 96.4359 60.7613 96.4131C60.7442 97.4131 60.7414 98.416 60.7556 99.416C59.5258 99.4388 58.2961 99.4445 57.0664 99.4388C57.1091 96.4929 57.1148 93.5499 57.0607 90.604ZM60.7414 92.5812C60.7471 93.1396 60.7527 93.6952 60.7556 94.2564C61.2509 94.2109 61.8174 94.245 62.1675 93.8205C62.2358 93.473 62.2216 93.114 62.2301 92.7607C61.7348 92.698 61.2367 92.6354 60.7414 92.5812Z" fill="#F47644" />
		<path d="M66.4318 90.6439C68.7091 90.5527 70.9921 90.5983 73.2694 90.6211C73.2694 91.4587 73.2637 92.2992 73.238 93.1396C72.1506 93.1596 71.0632 93.1624 69.9758 93.1824C69.9787 93.3846 69.9872 93.7892 69.99 93.9886C70.9721 94.0143 71.9542 94.02 72.9391 94.0171C72.9591 94.6752 72.979 95.3334 72.9932 95.9943C72.0083 95.9972 71.0234 96.0114 70.0384 96.0314C70.0356 96.2365 70.027 96.6467 70.0242 96.8519C71.1401 96.9174 72.2702 96.755 73.3747 96.9459C73.4914 97.7465 73.4999 98.567 73.3804 99.3675C71.0661 99.4901 68.7375 99.4616 66.4232 99.3675C66.446 96.4587 66.4261 93.5527 66.4318 90.6439Z" fill="#F47644" />
		<path d="M100.586 98.5726C100.631 95.9003 100.514 93.2279 100.651 90.5612C102.908 90.641 105.166 90.5669 107.423 90.6125C107.426 91.453 107.423 92.2906 107.415 93.1311C106.324 93.1624 105.234 93.1652 104.144 93.1795C104.144 93.3818 104.138 93.7863 104.138 93.9886C105.123 94.0142 106.111 94.0199 107.099 94.0142C107.124 94.6724 107.144 95.3333 107.161 95.9914C106.176 95.9971 105.191 96.0114 104.206 96.0285C104.201 96.2336 104.184 96.6439 104.175 96.849C105.308 96.8661 106.441 96.8689 107.577 96.9117C107.611 97.7379 107.608 98.5669 107.574 99.396C105.382 99.4473 103.184 99.4558 100.995 99.4103C100.452 99.5555 100.648 98.849 100.586 98.5726Z" fill="#F47644" />
		<path d="M121.947 90.6724C123.347 90.6183 124.748 90.6012 126.151 90.5784C126.669 92.0371 127.176 93.4986 127.691 94.9601C127.845 93.5299 127.899 92.0912 127.959 90.6553C128.935 90.5812 129.917 90.5784 130.896 90.6296C130.896 93.5499 130.965 96.473 130.905 99.396C129.522 99.4445 128.138 99.4559 126.755 99.396C126.245 97.9658 125.701 96.5499 125.217 95.1111C125.067 96.5356 125.081 97.9715 125.081 99.4046C124.013 99.4502 122.943 99.4587 121.878 99.3704C121.739 96.4701 121.955 93.5727 121.947 90.6724Z" fill="#F47644" />
		<path d="M141.084 90.6068C142.365 90.5926 143.646 90.5755 144.93 90.6382C145.184 92.5356 145.531 94.4245 145.904 96.302C146.123 95.7493 146.379 95.1909 146.425 94.5869C146.499 93.2621 146.917 91.9914 147.02 90.6695C148.252 90.5954 149.508 90.4815 150.726 90.7436C149.872 93.3704 149.22 96.0598 148.434 98.7065C148.315 99.0313 148.235 99.5071 147.771 99.4188C146.336 99.4701 144.905 99.4103 143.47 99.433C142.895 96.433 141.839 93.5584 141.084 90.6068Z" fill="#F47644" />
		<path d="M199.566 90.6325C200.821 90.5812 202.079 90.5869 203.337 90.6239C203.292 93.5527 203.315 96.4787 203.309 99.4074C202.045 99.4388 200.781 99.4445 199.517 99.4103C199.568 96.4843 199.492 93.5584 199.566 90.6325Z" fill="#F47644" />
	</g>
	<defs>
		<clipPath id="clip0_47_2">
			<rect width="232" height="100" fill="white" />
		</clipPath>
	</defs>
</svg>
