<svg width="267" height="84" viewBox="0 0 267 84" fill="none" xmlns="http://www.w3.org/2000/svg">
<path d="M163.053 0.872645C163.195 0.528801 163.269 -0.0786617 163.981 0.00844643C167.715 0.0290771 171.434 0.329365 175.168 0.331658C180.249 0.352288 185.341 0.478369 190.418 0.283519C190.379 23.665 190.429 47.0465 190.392 70.4303C180.973 70.4096 171.549 70.4852 162.132 70.3912C162.274 64.1791 162.323 57.9647 162.693 51.7548C162.85 49.3181 162.749 46.8769 162.801 44.4401C162.821 33.8153 163.007 23.1928 163.273 12.5703C163.269 10.278 163.126 7.98567 163.132 5.69106C163.149 4.08645 162.772 2.47267 163.053 0.872645Z" fill="#2C7E8E"/>
<path d="M244.225 1.11325C245.28 0.239888 247.075 0.244474 248.566 0.113807C252.16 0.0129476 255.76 0.084013 259.35 0.223836C261.493 0.274268 263.635 0.205499 265.778 0.274268C266.122 12.0842 266.047 23.8988 266.092 35.7086C266.096 46.3312 266.079 56.9537 266.099 67.5763C266.04 68.264 266.338 69.0891 265.558 69.6324C264.88 70.0886 263.848 70.0542 262.977 70.1046C253.883 70.201 244.788 70.359 235.694 70.217C233.621 66.0565 232.526 61.7011 230.928 57.4465C228.716 51.2757 226.544 45.1002 224.31 38.934C223.776 37.57 223.457 36.1603 222.724 34.8398C222.504 35.8966 222.613 36.9649 222.596 38.0285C222.57 43.9884 222.439 49.9462 222.593 55.9061C222.6 59.1864 222.793 62.4667 222.721 65.7493C222.652 67.1224 222.953 68.5413 222.38 69.8777C222.085 70.5837 220.906 70.6066 220.044 70.609C213.925 70.5952 207.804 70.6112 201.689 70.602C200.529 70.6341 199.703 69.9602 199.012 69.4032C198.783 68.892 198.934 68.3419 198.907 67.8147C198.95 55.2047 198.822 42.5947 199.058 29.9848C199.28 24.0271 199.218 18.0671 199.47 12.1094C199.53 8.67095 199.647 5.23023 199.592 1.78948C199.627 1.35394 199.539 0.877145 199.84 0.478282C200.325 0.340744 200.862 0.391176 201.377 0.372839C210.999 0.402642 220.617 0.363667 230.239 0.393469C231.746 3.07088 232.529 5.90645 233.594 8.67553C236.612 17.3244 239.766 25.9481 242.954 34.5671C243.206 35.2983 243.403 36.0456 243.875 36.7287C244.136 35.3304 243.983 33.9183 244.022 32.5132C243.999 22.0466 244.031 11.5753 244.225 1.11325Z" fill="#2C7E8E"/>
<path d="M82.1116 5.90666C89.2109 5.71182 96.3167 5.776 103.419 5.75537C103.907 5.79892 104.556 5.6889 104.9 6.00752C105.342 6.36054 105.221 6.86714 105.264 7.29809C105.237 12.2678 105.283 17.2352 105.247 22.2026C105.29 22.7963 104.664 23.2387 104.215 23.6903C97.3847 23.7247 90.5541 23.6766 83.7235 23.7133C83.7005 25.6159 83.73 27.5162 83.7038 29.4165C89.6335 29.5517 95.5435 29.0841 101.47 29.13C102.03 29.1506 102.754 29.1529 103.042 29.5678C103.888 30.6131 103.308 31.8486 103.324 32.9788C103.324 36.0321 103.583 39.0832 103.596 42.1365C103.495 42.5147 103.648 43.3193 102.797 43.2162C100.376 43.2941 97.9547 43.3973 95.537 43.5417C91.7204 43.7548 87.8808 43.576 84.0609 43.6792L83.9265 43.7847C83.8185 45.6369 83.9102 47.4959 83.8905 49.3527C86.6621 49.7882 89.4795 49.3435 92.2773 49.3664C95.9891 49.2174 99.7107 49.1601 103.429 49.2266C104.284 49.2954 105.349 49.2518 105.919 49.7996C106.286 50.0816 106.178 50.4942 106.227 50.8449C106.21 55.6634 106.243 60.4841 106.21 65.3048C106.148 65.9122 106.092 66.7856 105.041 66.9461C104.074 67.0606 103.088 67.0057 102.115 67.0125C88.4639 67.0011 74.8125 67.024 61.1611 67.0011C60.6402 66.4761 59.8114 65.9856 59.9195 65.2818C59.9392 46.5698 59.9261 27.86 59.9293 9.14796C59.9588 8.309 59.8736 7.44937 60.1881 6.62874C60.4961 6.08547 61.4429 5.99148 62.1702 6.074C65.2104 6.38576 68.2899 6.18861 71.3464 6.20695C74.9305 6.02127 78.5276 6.08547 82.1116 5.90666Z" fill="#F6F6F6"/>
<path d="M106.8 6.23882C122.932 6.22736 139.062 6.24111 155.194 6.23194C156.191 6.24799 157.213 6.16318 158.192 6.32821C158.923 6.80731 158.729 7.59358 158.827 8.22624C158.841 12.9621 158.838 17.698 158.831 22.4317C158.765 22.8969 158.831 23.5411 158.133 23.7909C157.603 23.9124 157.032 23.8712 156.485 23.8849C152.701 23.8643 148.917 23.8643 145.133 23.8872C145.12 37.923 145.14 51.9588 145.124 65.9945C145.15 66.6547 144.963 67.5854 143.771 67.6335C140.921 67.6519 138.031 67.7894 135.217 67.3974C130.837 67.0971 126.45 67.5808 122.063 67.4914C121.369 67.5739 120.959 67.1476 120.553 66.8404C120.196 66.5287 119.717 66.2077 119.751 65.7744C119.737 62.5584 119.753 59.3446 119.747 56.1284C119.923 52.8413 119.97 49.5518 120.062 46.2647C120.409 41.3087 120.301 36.3459 120.51 31.3876C120.395 28.983 120.881 26.544 120.31 24.1623C116.638 24.2059 112.966 24.1944 109.296 24.1738C108.117 24.1899 106.626 23.6167 106.807 22.6677C106.794 17.1915 106.813 11.7151 106.8 6.23882Z" fill="#F6F6F6"/>
<path d="M1.65444 6.49787C3.5775 6.44056 5.494 6.23884 7.42033 6.28927C17.1372 6.30073 26.854 6.28697 36.5709 6.29614C41.0951 6.40617 45.2754 8.07724 48.25 10.3994C51.9946 13.1707 53.898 16.882 54.8513 20.5771C55.7949 24.6552 55.785 28.8753 54.5695 32.9281C53.4098 36.7173 50.7989 40.2406 47.4015 43.2802C46.2778 44.2887 44.5972 44.8687 43.0378 45.4785C40.204 46.4298 37.1212 47.0556 33.9729 47.1725C32.3152 47.2023 30.7067 47.5461 29.0457 47.5576C27.6861 47.569 26.3298 47.5438 24.9703 47.5553C24.8981 53.5473 25.003 59.5394 25.2717 65.5269C25.2946 66.0519 25.1963 66.6341 24.6426 67.0261C23.9678 67.4364 23.0309 67.4868 22.1758 67.496C15.0961 67.5075 8.01986 67.473 0.940262 67.5121C0.62903 63.567 0.756803 59.6082 0.504541 55.6586C0.402982 48.4768 -0.0425643 41.2996 0.00330099 34.1178C0.0131293 25.3245 0.635584 16.5404 0.638859 7.74945C0.609375 7.24745 0.756803 6.54142 1.65444 6.49787ZM23.2601 21.5147C23.5092 25.4231 22.6312 29.3108 22.7458 33.2192C23.3126 33.4301 23.8236 33.7877 24.4887 33.8152C27.0112 33.8359 29.5076 33.0702 31.2407 31.7957C33.2587 30.1888 33.7435 27.9492 33.6715 25.8815C33.5863 24.2288 33.1178 22.4454 31.5027 21.1709C29.5011 19.9216 26.628 19.7841 24.0726 19.7817C23.3683 20.2356 23.1357 20.8614 23.2601 21.5147Z" fill="#F6F6F6"/>
<path d="M208.097 75.2463C209.728 75.3357 211.376 75.3541 212.981 75.6085C212.811 77.2429 212.951 78.8819 212.873 80.5186C212.837 81.3966 212.474 82.4167 211.261 82.8522C209.158 83.6751 206.504 83.6682 204.276 83.0998C202.858 82.7628 201.904 81.7703 201.911 80.7295C201.872 78.9942 201.925 77.2567 201.921 75.5191C203.458 75.487 204.998 75.4664 206.537 75.5007C206.733 77.392 206.52 79.2923 206.74 81.1811C207.242 81.2109 208.09 81.2223 208.044 80.7203C208.159 78.898 208.08 77.071 208.097 75.2463Z" fill="#2C7E8E"/>
<path d="M0.786435 75.496C3.74146 75.4823 6.69975 75.4594 9.65477 75.5052C9.64822 76.2434 9.63839 76.9792 9.63183 77.7173C8.18382 77.8044 6.72923 77.7678 5.27794 77.809C5.25828 77.9672 5.21897 78.2835 5.19931 78.4417C6.54905 78.4624 7.89552 78.4486 9.24526 78.4944C9.24199 79.1615 9.26165 79.8286 9.28785 80.4979C7.95449 80.562 6.62113 80.5827 5.28449 80.5941C5.28777 80.8532 5.29104 81.1122 5.29104 81.3712C6.79803 81.3644 8.30175 81.3071 9.80874 81.3185C9.81202 82.0361 9.8153 82.7535 9.82185 83.471C8.70143 83.5673 7.57119 83.6635 6.44094 83.5787C4.55392 83.4389 2.65708 83.5627 0.766778 83.4939C0.701261 80.828 0.832308 78.162 0.786435 75.496Z" fill="#2C7E8E"/>
<path d="M192.031 75.5169C194 75.4664 195.971 75.4527 197.94 75.5306C199.129 78.1897 200.495 80.8143 201.542 83.501C199.995 83.5055 198.448 83.5238 196.902 83.4689C196.672 83.1181 196.715 82.5932 196.152 82.4029C195.219 82.302 194.272 82.3662 193.335 82.3914C193.147 82.7261 193.147 83.1457 192.787 83.4162C191.349 83.7049 189.836 83.6087 188.375 83.4986C189.226 80.7616 190.851 78.1851 192.031 75.5169ZM193.626 80.5439C194.451 80.5347 195.277 80.498 196.099 80.4224C195.696 79.3427 195.432 78.2401 194.963 77.1742C194.082 78.1828 193.888 79.4 193.626 80.5439Z" fill="#2C7E8E"/>
<path d="M106.505 76.2503C108.474 75.5259 111.03 75.5535 112.93 76.3764C113.755 76.7042 114.073 77.3506 114.093 77.9856C112.802 78.0269 111.498 78.0521 110.23 77.848C109.663 77.7311 109.09 77.8434 108.563 77.9879C109.985 78.6962 111.934 78.561 113.29 79.3564C114.928 80.2435 114.558 82.2699 112.746 82.9255C110.951 83.5742 108.766 83.6224 106.856 83.196C105.601 82.8246 104.841 81.926 104.671 81.0045C105.958 80.9702 107.249 80.961 108.533 81.0206C108.792 81.22 108.874 81.596 109.316 81.6487C109.88 81.8275 110.243 81.3896 110.623 81.1925C109.261 80.4383 107.315 80.6859 105.978 79.9019C104.199 79.0309 104.605 76.8967 106.505 76.2503Z" fill="#2C7E8E"/>
<path d="M23.3354 77.1947C24.4395 76.1976 26.3822 75.9087 28.0988 75.9706C29.3962 76.0486 30.8475 76.3373 31.5748 77.1603C32.1382 77.6715 32.1547 78.3317 32.1874 78.946C30.9425 78.9414 29.6976 78.9414 28.4527 78.9368C28.4887 78.3776 27.8696 77.6692 27.0243 78.1575C26.379 79.0033 26.5493 80.0509 26.7327 80.9678C26.759 81.4194 27.4174 81.4011 27.8925 81.4469C28.0596 81.1443 28.2266 80.8441 28.397 80.546C29.7173 80.5552 31.0375 80.5414 32.361 80.5575C32.2628 81.4286 31.8925 82.3914 30.7688 82.8842C28.2331 84.1038 23.9513 83.5489 22.7785 81.4286C21.9857 80.0784 21.9956 78.3776 23.3354 77.1947Z" fill="#2C7E8E"/>
<path d="M37.3996 76.076C38.7364 75.8652 40.1778 76.0463 41.3736 76.5025C43.9944 78.0245 44.2859 81.298 41.5013 82.8223C39.1622 83.8721 35.4701 83.7458 33.8156 82.0315C32.5478 80.5323 32.5576 78.4119 34.2087 77.0549C34.9753 76.3718 36.2793 76.2709 37.3996 76.076ZM37.439 78.1666C36.9705 79.2601 36.7838 80.5758 37.6618 81.5868C38.8838 82.0429 39.4308 80.9656 39.4144 80.3031C39.3981 79.4641 39.5947 78.2606 38.2515 77.8595C38.0484 77.9351 37.6421 78.091 37.439 78.1666Z" fill="#2C7E8E"/>
<path d="M93.424 76.0761C94.8883 75.8721 96.5559 76.0417 97.7549 76.6927C99.0457 77.7311 99.832 79.173 99.3799 80.5507C99.1277 81.6487 98.2005 82.7215 96.6902 83.1593C94.9146 83.6041 92.8015 83.6498 91.1602 82.9278C88.6868 81.8069 88.3821 79.2487 89.6958 77.5455C90.4198 76.5666 91.9825 76.2434 93.424 76.0761ZM93.4534 78.169C93.0014 79.1845 92.8998 80.3146 93.4437 81.3232C93.6566 81.7886 94.7672 81.8 95.0489 81.3736C95.7074 80.3604 95.4814 79.1937 95.0652 78.1552C94.8654 78.0934 94.4691 77.9673 94.2692 77.9053C94.0661 77.9719 93.6566 78.1025 93.4534 78.169Z" fill="#2C7E8E"/>
<path d="M124.156 75.9843C125.572 75.9247 126.991 75.9362 128.405 75.95C128.396 77.6829 128.343 79.4182 128.455 81.1511C128.792 81.1168 129.496 81.3231 129.523 80.9357C129.729 79.2853 129.549 77.6211 129.661 75.966C131.118 75.9339 132.583 75.9408 134.043 75.9316C134.001 77.6119 133.936 79.2921 133.923 80.9724C133.965 81.8114 133.183 82.6045 132.075 82.9093C130.587 83.3311 128.927 83.3243 127.351 83.2487C125.703 83.1409 124.271 82.1735 124.197 81.0022C124.042 79.3311 124.268 77.6577 124.156 75.9843Z" fill="#2C7E8E"/>
<path d="M156.249 76.0074C157.477 75.9226 158.762 76.138 159.807 76.5965C162.313 78.208 162.507 81.4791 159.588 82.9164C157.333 83.7829 154.064 83.7394 152.334 82.2653C150.817 80.8556 150.817 78.7398 152.194 77.2819C153.058 76.3122 154.811 76.2366 156.249 76.0074ZM155.932 78.0865C155.001 78.9484 155.299 80.2183 155.611 81.2132C155.712 81.784 157.016 81.8344 157.31 81.3301C157.897 80.443 157.77 79.3954 157.415 78.4761C157.326 78.0223 156.42 77.7495 155.932 78.0865Z" fill="#2C7E8E"/>
<path d="M177.9 76.0417C179.224 75.9018 180.659 76.0714 181.776 76.6033C184.22 78.1827 184.433 81.3369 181.723 82.8292C179.375 83.8657 175.702 83.7442 174.042 82.0315C172.767 80.5827 172.8 78.538 174.281 77.1672C175.083 76.3328 176.619 76.2457 177.9 76.0417ZM177.655 78.1185C177.111 79.2761 177.173 80.53 177.792 81.667C178.202 81.6555 178.615 81.6303 179.025 81.5936C179.922 80.6378 179.765 79.3564 179.284 78.3134C179.011 77.8342 178.182 77.9351 177.655 78.1185Z" fill="#2C7E8E"/>
<path d="M214.429 75.9524C216.348 75.9386 218.268 76.0028 220.188 76.0051C220.48 77.0802 220.755 78.1599 221.122 79.2235C221.575 78.1392 221.947 77.0389 222.338 75.9432C224.172 75.9478 226.007 75.9203 227.841 75.9684C228.022 78.098 227.871 80.2321 227.937 82.364C227.857 82.6459 228.103 83.1273 227.579 83.2464C226.478 83.3312 225.368 83.2625 224.268 83.258C223.933 82.2447 224.1 81.2063 224.037 80.1794C223.232 81.1077 223.084 82.2126 222.655 83.2373C221.61 83.2923 220.562 83.2923 219.52 83.2419C219.042 81.8573 218.642 80.4613 218.255 79.0653C217.911 80.4269 218.032 81.8184 217.987 83.1937C216.824 83.1846 215.66 83.1846 214.498 83.1983C214.377 80.7845 214.42 78.3684 214.429 75.9524Z" fill="#2C7E8E"/>
<path d="M235.425 77.5432C236.296 76.3787 238.288 76.0096 240.032 75.9707C241.43 75.9753 242.924 76.1724 244.047 76.7959C244.753 77.1971 244.785 77.871 244.943 78.4464C243.747 78.4464 242.544 78.4762 241.358 78.3707C240.719 78.185 239.949 77.7816 239.314 78.1988C238.702 79.0355 238.787 80.0762 239.098 80.9679C239.305 81.5685 240.401 81.4218 241.067 81.4287C241.613 81.5341 241.466 81.0275 241.659 80.8304C241.12 80.7845 240.586 80.741 240.054 80.6997C240.034 80.1977 240.034 79.6957 240.052 79.1937C241.741 79.1249 243.439 79.1203 245.126 79.2326C245.119 80.4682 245.044 81.7037 245.122 82.9393C242.731 83.5239 240.018 83.721 237.575 83.18C234.403 82.4121 233.833 79.3587 235.425 77.5432Z" fill="#2C7E8E"/>
<path d="M250.338 76.0807C251.668 75.8628 253.129 76.0279 254.315 76.4978C256.927 78.0245 257.234 81.2887 254.463 82.8177C252.779 83.5741 250.519 83.6842 248.667 83.1661C245.551 82.1506 245.044 78.9735 247.006 77.1764C247.737 76.3924 249.146 76.2846 250.338 76.0807ZM250.384 78.1849C249.893 79.2807 249.751 80.5804 250.6 81.6051C251.069 81.6624 251.777 81.7403 251.986 81.3368C252.625 80.3351 252.419 79.173 251.956 78.1551C251.759 78.0887 251.363 77.958 251.163 77.8916C250.97 77.9649 250.581 78.1116 250.384 78.1849Z" fill="#2C7E8E"/>
<path d="M10.8341 76.2343C12.4525 76.1861 14.0708 76.161 15.6892 76.1861C16.2855 77.4057 16.9603 78.6068 17.4714 79.8492C17.6287 78.6641 17.6123 77.4721 17.7991 76.2915C18.7753 76.0096 20.0431 76.2343 21.1275 76.2091C21.1439 78.5541 21.2389 80.9014 21.1439 83.2464C19.5682 83.2281 17.9203 83.4206 16.3805 83.1845C15.6565 82.0911 15.247 80.9082 14.5525 79.8057C14.4574 80.9541 14.4476 82.1048 14.4443 83.2579C13.242 83.2556 12.02 83.3656 10.8341 83.196L10.7358 83.0493C10.6015 80.7799 10.8636 78.506 10.8341 76.2343Z" fill="#2C7E8E"/>
<path d="M44.5809 76.223C46.1927 76.1886 47.8046 76.1679 49.4163 76.1702C50.0421 77.3943 50.6908 78.6161 51.2346 79.8609C51.3132 78.6459 51.4475 77.4356 51.4966 76.2206C52.6237 76.1587 53.7572 76.1565 54.8874 76.1977C54.9988 77.4837 54.8186 78.772 54.9005 80.0602C54.9038 81.1078 55.0577 82.1646 54.8317 83.2053C53.2821 83.3291 51.6703 83.3474 50.1272 83.2007C49.4098 82.0981 48.9479 80.9245 48.332 79.7967C48.1911 80.9474 48.2009 82.1027 48.178 83.258C46.9134 83.2832 45.6358 83.3451 44.3909 83.148C44.4629 80.8397 44.5481 78.5313 44.5809 76.223Z" fill="#2C7E8E"/>
<path d="M55.5819 76.1838C58.586 76.1494 61.5935 76.1999 64.5977 76.1494C64.65 76.8371 64.6632 77.527 64.6632 78.2147C63.8835 78.2606 63.0219 78.1277 62.3011 78.3316C62.1996 79.9707 62.2749 81.6188 62.2717 83.2624C60.8269 83.2945 59.3789 83.2991 57.9342 83.2395C57.754 81.5753 58.0717 79.9134 58.0455 78.2492C57.2396 78.24 56.4305 78.2239 55.6277 78.1987C55.5852 77.527 55.5754 76.8531 55.5819 76.1838Z" fill="#2C7E8E"/>
<path d="M65.24 76.177C67.53 76.2045 69.8297 76.083 72.1098 76.2572C73.3123 76.3328 74.7635 76.7914 74.8258 77.7587C75.0846 78.5816 74.2557 79.2418 73.3744 79.6865C74.9863 80.4865 74.7603 82.0522 75.2418 83.2556C73.8658 83.2373 72.4277 83.4184 71.0877 83.1846C70.6652 82.4625 70.6357 81.6671 70.4358 80.9084C70.1246 80.8877 69.8101 80.8693 69.4989 80.851C69.4792 81.6556 69.476 82.4625 69.4923 83.2671C68.077 83.2855 66.6618 83.29 65.2465 83.2855C65.2957 80.9152 65.3023 78.5473 65.24 76.177ZM69.476 77.7679C69.4825 78.2171 69.489 78.6642 69.4923 79.1157C70.0623 79.0791 70.7143 79.1065 71.1172 78.765C71.1958 78.4854 71.1795 78.1965 71.1893 77.9123C70.6192 77.8618 70.046 77.8115 69.476 77.7679Z" fill="#2C7E8E"/>
<path d="M76.0248 76.2089C78.6456 76.1356 81.2731 76.1722 83.8939 76.1906C83.8939 76.8645 83.8874 77.5408 83.8578 78.217C82.6063 78.2331 81.3549 78.2353 80.1034 78.2514C80.1068 78.4141 80.1166 78.7396 80.1198 78.9001C81.25 78.9208 82.3803 78.9253 83.5138 78.923C83.5368 79.4525 83.5597 79.9821 83.5761 80.5139C82.4426 80.5162 81.3091 80.5276 80.1755 80.5437C80.1723 80.7087 80.1624 81.0388 80.1591 81.2039C81.4434 81.2566 82.744 81.1259 84.0151 81.2795C84.1494 81.9237 84.1592 82.5838 84.0217 83.2279C81.3582 83.3266 78.6783 83.3036 76.0149 83.2279C76.0411 80.8875 76.0182 78.5493 76.0248 76.2089Z" fill="#2C7E8E"/>
<path d="M115.331 82.5885C115.383 80.4384 115.249 78.2882 115.406 76.1426C118.004 76.2068 120.602 76.1472 123.2 76.1839C123.203 76.8601 123.2 77.534 123.191 78.2103C121.935 78.2355 120.681 78.2377 119.426 78.2493C119.426 78.412 119.419 78.7375 119.419 78.9003C120.553 78.9209 121.69 78.9254 122.827 78.9209C122.856 79.4504 122.879 79.9822 122.898 80.5117C121.765 80.5163 120.631 80.5278 119.498 80.5416C119.492 80.7066 119.472 81.0367 119.462 81.2017C120.766 81.2155 122.07 81.2177 123.377 81.2522C123.416 81.9169 123.413 82.5839 123.374 83.251C120.851 83.2923 118.321 83.2992 115.802 83.2625C115.177 83.3794 115.403 82.8109 115.331 82.5885Z" fill="#2C7E8E"/>
<path d="M139.915 76.2319C141.526 76.1884 143.139 76.1746 144.753 76.1562C145.349 77.3299 145.933 78.5058 146.526 79.6818C146.703 78.531 146.765 77.3734 146.834 76.2181C147.957 76.1585 149.087 76.1563 150.214 76.1974C150.214 78.5471 150.293 80.899 150.224 83.2509C148.633 83.2899 147.04 83.2991 145.448 83.2509C144.861 82.1001 144.235 80.9609 143.678 79.8032C143.506 80.9494 143.522 82.1047 143.522 83.2578C142.293 83.2945 141.061 83.3013 139.836 83.2303C139.676 80.8967 139.924 78.5655 139.915 76.2319Z" fill="#2C7E8E"/>
<path d="M161.939 76.1792C163.413 76.1678 164.888 76.1541 166.365 76.2045C166.658 77.7311 167.057 79.251 167.486 80.7616C167.738 80.3169 168.033 79.8676 168.086 79.3816C168.171 78.3157 168.652 77.2933 168.771 76.2297C170.189 76.1701 171.634 76.0784 173.036 76.2893C172.053 78.4028 171.303 80.5667 170.398 82.6962C170.261 82.9576 170.169 83.3404 169.635 83.2694C167.984 83.3106 166.337 83.2625 164.685 83.2808C164.023 80.867 162.808 78.5541 161.939 76.1792Z" fill="#2C7E8E"/>
<path d="M229.244 76.2C230.688 76.1588 232.136 76.1633 233.584 76.1931C233.532 78.5496 233.558 80.9039 233.552 83.2603C232.097 83.2856 230.642 83.2901 229.188 83.2626C229.246 80.9084 229.159 78.5542 229.244 76.2Z" fill="#2C7E8E"/>
</svg>
