<svg width="634" height="175" viewBox="0 0 634 175" fill="none" xmlns="http://www.w3.org/2000/svg">
<mask id="mask0_33_309" style="mask-type:luminance" maskUnits="userSpaceOnUse" x="0" y="0" width="634" height="192">
<path d="M634 0H0V191.092H634V0Z" fill="white"/>
</mask>
<g mask="url(#mask0_33_309)">
<path d="M389.181 2.11844C389.516 1.28372 389.693 -0.19096 391.378 0.0205047C400.224 0.0705879 409.032 0.79957 417.878 0.805137C429.913 0.855218 441.973 1.16129 454 0.688274C453.907 57.4495 454.025 114.211 453.937 170.977C431.628 170.927 409.304 171.111 387 170.883C387.335 155.802 387.453 140.716 388.328 125.641C388.701 119.725 388.461 113.799 388.584 107.883C388.63 82.0903 389.072 56.3031 389.701 30.5157C389.693 24.9509 389.353 19.3861 389.369 13.8157C389.407 9.92031 388.516 6.00268 389.181 2.11844Z" fill="#7ACFDF"/>
<path d="M581.916 2.53763C584.428 0.420531 588.701 0.431648 592.248 0.114903C600.802 -0.129587 609.37 0.0426799 617.916 0.38162C623.017 0.503872 628.114 0.337171 633.214 0.503872C634.033 29.132 633.855 57.7713 633.962 86.3993C633.97 112.149 633.932 137.899 633.979 163.649C633.839 165.316 634.548 167.316 632.691 168.633C631.078 169.739 628.621 169.655 626.547 169.778C604.903 170.011 583.258 170.394 561.614 170.05C556.678 159.964 554.073 149.407 550.269 139.093C545.004 124.135 539.835 109.165 534.519 94.2176C533.248 90.9113 532.489 87.494 530.744 84.2932C530.221 86.8549 530.479 89.4444 530.44 92.0226C530.377 106.47 530.065 120.912 530.432 135.359C530.448 143.311 530.909 151.263 530.736 159.22C530.572 162.548 531.289 165.988 529.925 169.227C529.224 170.939 526.416 170.994 524.365 171C509.801 170.967 495.234 171.005 480.679 170.983C477.918 171.061 475.954 169.427 474.308 168.077C473.762 166.838 474.121 165.504 474.058 164.226C474.16 133.659 473.856 103.092 474.417 72.5243C474.946 58.0824 474.798 43.635 475.398 29.193C475.54 20.858 475.82 12.5175 475.688 4.17685C475.773 3.12107 475.562 1.96529 476.28 0.998415C477.433 0.665014 478.712 0.787265 479.936 0.742815C502.838 0.815058 525.729 0.720581 548.631 0.792823C552.216 7.28305 554.081 14.1567 556.615 20.8691C563.797 41.8345 571.305 62.7389 578.892 83.632C579.492 85.4045 579.961 87.2161 581.084 88.872C581.705 85.4824 581.341 82.0594 581.434 78.6532C581.379 53.2815 581.456 27.8984 581.916 2.53763Z" fill="#7ACFDF"/>
<path d="M195.995 17.7447C212.853 17.2819 229.726 17.4344 246.591 17.3854C247.75 17.4888 249.291 17.2275 250.107 17.9843C251.157 18.8227 250.87 20.0258 250.971 21.0493C250.908 32.8524 251.017 44.65 250.932 56.4476C251.033 57.8577 249.547 58.9083 248.481 59.9809C232.262 60.0625 216.042 59.9483 199.823 60.0354C199.768 64.5541 199.838 69.0673 199.776 73.5806C213.857 73.9018 227.89 72.7912 241.962 72.9001C243.293 72.949 245.012 72.9545 245.696 73.9398C247.703 76.4225 246.327 79.3569 246.365 82.041C246.365 89.2925 246.98 96.5389 247.011 103.79C246.77 104.689 247.136 106.6 245.113 106.355C239.364 106.54 233.615 106.785 227.874 107.128C218.812 107.634 209.695 107.209 200.624 107.454L200.305 107.705C200.048 112.104 200.266 116.519 200.22 120.929C206.801 121.963 213.491 120.907 220.134 120.962C228.948 120.608 237.785 120.472 246.614 120.63C248.645 120.793 251.173 120.689 252.526 121.99C253.398 122.66 253.141 123.64 253.258 124.473C253.219 135.917 253.297 147.366 253.219 158.815C253.071 160.258 252.939 162.332 250.442 162.713C248.147 162.985 245.805 162.855 243.495 162.871C211.079 162.844 178.664 162.898 146.248 162.844C145.011 161.597 143.043 160.432 143.3 158.761C143.346 114.32 143.315 69.8839 143.323 25.4428C143.393 23.4503 143.191 21.4086 143.938 19.4596C144.669 18.1694 146.917 17.9461 148.644 18.1421C155.863 18.8826 163.175 18.4143 170.433 18.4579C178.944 18.0169 187.485 18.1694 195.995 17.7447Z" fill="#3CACC3"/>
<path d="M254.619 18.5341C292.925 18.5069 331.227 18.5395 369.532 18.5178C371.899 18.5559 374.325 18.3544 376.651 18.7464C378.386 19.8843 377.927 21.7516 378.159 23.2542C378.192 34.5019 378.184 45.7497 378.167 56.9921C378.012 58.0971 378.167 59.627 376.511 60.2204C375.252 60.5089 373.896 60.4111 372.598 60.4436C363.613 60.3946 354.628 60.3946 345.642 60.4491C345.612 93.784 345.659 127.119 345.62 160.454C345.683 162.022 345.238 164.232 342.407 164.347C335.64 164.39 328.778 164.717 322.097 163.786C311.696 163.073 301.279 164.221 290.861 164.009C289.213 164.205 288.241 163.192 287.276 162.463C286.429 161.722 285.292 160.96 285.371 159.931C285.338 152.293 285.377 144.66 285.363 137.022C285.781 129.215 285.89 121.402 286.109 113.596C286.934 101.825 286.677 90.0383 287.175 78.2625C286.902 72.5515 288.055 66.759 286.699 61.1024C277.979 61.2058 269.26 61.1787 260.547 61.1296C257.746 61.1678 254.207 59.8066 254.635 57.5527C254.604 44.5466 254.65 31.5403 254.619 18.5341Z" fill="#3CACC3"/>
<path d="M4.94756 19.1493C9.51392 19.0132 14.0647 18.5341 18.6388 18.6539C41.7118 18.6811 64.7848 18.6484 87.8577 18.6702C98.6008 18.9315 108.527 22.9003 115.59 28.4154C124.482 34.9974 129.002 43.8115 131.265 52.5876C133.506 62.2729 133.482 72.2957 130.596 81.9212C127.842 90.9204 121.643 99.2882 113.575 106.507C110.907 108.903 106.917 110.28 103.214 111.728C96.4848 113.988 89.1646 115.474 81.6888 115.751C77.7525 115.822 73.933 116.639 69.9891 116.666C66.7606 116.693 63.54 116.633 60.3118 116.661C60.1405 130.892 60.3894 145.123 61.0275 159.343C61.0819 160.59 60.8485 161.973 59.5338 162.904C57.9313 163.878 55.7066 163.998 53.6761 164.02C36.8653 164.047 20.0625 163.965 3.25172 164.058C2.5127 154.688 2.81609 145.286 2.21709 135.906C1.97594 118.849 0.917973 101.803 1.02688 84.7466C1.05022 63.8626 2.52826 43.0003 2.53603 22.1218C2.46602 20.9295 2.81609 19.2527 4.94756 19.1493ZM56.2509 54.8144C56.8423 64.0967 54.7575 73.33 55.0297 82.6125C56.3755 83.1134 57.5889 83.9626 59.1681 84.0279C65.1581 84.077 71.0857 82.2586 75.201 79.2317C79.9929 75.4152 81.1442 70.0962 80.9731 65.1855C80.7709 61.2603 79.6584 57.0247 75.8232 53.9977C71.0704 51.0306 64.2481 50.704 58.1803 50.6984C56.5078 51.7764 55.9555 53.2627 56.2509 54.8144Z" fill="#3CACC3"/>
</g>
</svg>
